<svg width="64" height="36" viewBox="0 0 64 36" fill="none" xmlns="http://www.w3.org/2000/svg">
<path d="M0 36V29.2728C0.00195144 29.168 0.00950641 29.0635 0.0226313 28.9595C0.105613 28.2279 0.482801 27.7999 1.1542 27.6756C1.22131 27.6619 1.28946 27.6542 1.35788 27.6525H3.51728C3.61994 27.6546 3.7222 27.6662 3.8228 27.6871C4.5885 27.8332 4.97071 28.3381 4.96946 29.2017V32.3462C4.96447 32.6259 4.86901 32.8962 4.69788 33.115C4.64393 33.182 4.58665 33.2462 4.52626 33.3072C4.27173 33.5703 3.92509 33.7197 3.56254 33.7224H1.50875V36H0ZM1.52007 31.8061C1.53007 31.9018 1.57381 31.9906 1.64317 32.056C1.71253 32.1214 1.80281 32.1589 1.89726 32.1617C1.92641 32.1715 1.95716 32.1754 1.98778 32.1732H3.13066C3.22299 32.1544 3.30695 32.1059 3.37018 32.0348C3.41719 31.971 3.44826 31.8964 3.4607 31.8176V29.5111C3.45031 29.4375 3.41738 29.369 3.36658 29.3155C3.31579 29.262 3.24973 29.2262 3.17781 29.2132C3.15942 29.205 3.13944 29.201 3.11935 29.2017H1.94063C1.85815 29.1974 1.77657 29.2209 1.70843 29.2685C1.64029 29.316 1.58936 29.3851 1.56345 29.465C1.52909 29.5232 1.50963 29.5893 1.50687 29.6572V31.7138C1.50652 31.7451 1.51098 31.7762 1.52007 31.8061Z" fill="white"/>
<path d="M5.63707 29.0748C5.63748 28.9695 5.64886 28.8645 5.67102 28.7616C5.82944 28.0222 6.30972 27.6525 7.11188 27.6525H9.16566C9.99674 27.6525 10.4657 28.0549 10.5726 28.8596C10.5817 28.9438 10.5854 29.0286 10.5839 29.1133V30.3203L7.17034 31.6658V31.7657C7.17034 32.0425 7.26841 32.1809 7.46455 32.1809H10.5726V33.7301H7.25898C6.95098 33.7479 6.64339 33.6885 6.36316 33.5571C5.87847 33.2861 5.63707 32.8209 5.63707 32.1578V29.0748ZM9.05251 29.5707V29.5131C9.03426 29.4501 8.99758 29.3942 8.94737 29.353C8.89716 29.3118 8.8358 29.2872 8.7715 29.2824C8.74588 29.2743 8.71913 29.2704 8.69229 29.2709H7.64937C7.56099 29.2615 7.47182 29.2782 7.39255 29.3191C7.31327 29.36 7.24725 29.4234 7.2024 29.5015C7.17721 29.5513 7.16549 29.6071 7.16845 29.663V30.2877L9.05251 29.5707Z" fill="white"/>
<path d="M11.5476 29.2017C11.5476 28.1676 12.0581 27.6512 13.079 27.6525H14.1012V29.2017H13.443C13.1846 29.2401 13.0658 29.3478 13.0658 29.5246V33.7224H11.5571L11.5476 29.2017Z" fill="white"/>
<path d="M15.046 33.7224V26.7722C15.04 26.5724 15.0823 26.3741 15.1691 26.1948C15.2559 26.0155 15.3846 25.8607 15.5439 25.7439C15.8666 25.5053 16.2581 25.3829 16.6566 25.396H17.609V26.8645H17.0074L16.9622 26.876C16.9061 26.8777 16.8509 26.8909 16.7999 26.9146C16.7489 26.9384 16.7031 26.9723 16.6651 27.0144C16.6271 27.0565 16.5978 27.1059 16.5789 27.1597C16.5599 27.2135 16.5518 27.2706 16.5548 27.3277V27.6525H17.609V29.2017H16.5548V33.7224H15.046Z" fill="white"/>
<path d="M18.7425 32.3577V29.023C18.7451 28.9292 18.7565 28.8359 18.7764 28.7443C18.9197 28.019 19.4076 27.657 20.2399 27.6583H22.2711C22.6612 27.6398 23.0453 27.7623 23.3555 28.0043C23.4955 28.1309 23.6051 28.2886 23.6757 28.4652C23.7463 28.6419 23.7762 28.8327 23.7628 29.023V32.3635C23.7753 32.5542 23.7445 32.7453 23.6729 32.9219C23.6013 33.0986 23.4908 33.2561 23.3498 33.3822C23.0396 33.6241 22.6556 33.7466 22.2654 33.7281H20.2399C19.3598 33.7281 18.872 33.3662 18.7764 32.6422L18.7425 32.3577ZM20.5907 32.1655H21.9222C21.9689 32.1617 22.0142 32.1466 22.0542 32.1215C22.0941 32.0965 22.1278 32.0622 22.1523 32.0214C22.2178 31.9426 22.2556 31.8439 22.2598 31.7407V29.6073C22.254 29.5074 22.2162 29.4122 22.1523 29.3363C22.1274 29.2959 22.0937 29.2621 22.0537 29.2374C22.0138 29.2127 21.9687 29.1978 21.9222 29.194H20.5907C20.5433 29.1957 20.4969 29.209 20.4555 29.2327C20.4142 29.2565 20.379 29.29 20.3531 29.3305C20.2901 29.4088 20.2543 29.5061 20.2512 29.6073V31.7523C20.2542 31.8529 20.29 31.9496 20.3531 32.0271C20.3778 32.0695 20.4125 32.105 20.4539 32.1305C20.4954 32.156 20.5423 32.1707 20.5907 32.1732V32.1655Z" fill="white"/>
<path d="M24.8133 29.2017C24.8133 28.1676 25.3238 27.6512 26.3447 27.6525H27.365V29.2017H26.7068C26.4554 29.2401 26.3296 29.3478 26.3296 29.5246V33.7224H24.8209L24.8133 29.2017Z" fill="white"/>
<path d="M28.3099 29.1095C28.294 28.8225 28.3594 28.5369 28.4985 28.2868C28.624 28.0832 28.8003 27.9173 29.0094 27.8058C29.2185 27.6944 29.4528 27.6415 29.6885 27.6525H30.8446C31.4255 27.6525 31.8177 27.8332 32.0214 28.1946C32.2251 27.8332 32.6193 27.6525 33.2001 27.6525H34.3562C34.5918 27.6419 34.826 27.695 35.035 27.8064C35.244 27.9178 35.4204 28.0835 35.5462 28.2868C35.6903 28.5354 35.7611 28.821 35.7499 29.1095V33.7224H34.2412V29.663C34.2412 29.3555 34.1016 29.2017 33.8244 29.2017H33.1586C33.1086 29.2046 33.0595 29.2163 33.0134 29.2363C32.9403 29.2602 32.8771 29.3084 32.834 29.3732C32.7909 29.438 32.7704 29.5157 32.7758 29.5938V33.7224H31.267V29.5996C31.2708 29.5074 31.2408 29.417 31.183 29.346C31.1252 29.275 31.0436 29.2284 30.954 29.2152H30.2392C30.1386 29.2096 30.0397 29.2436 29.9628 29.3101C29.886 29.3766 29.8371 29.4706 29.8262 29.5727C29.8243 29.5885 29.8205 29.604 29.8149 29.6188V33.7358H28.3061L28.3099 29.1095Z" fill="white"/>
<path d="M36.8079 32.3462V31.1084C36.7964 30.9141 36.8252 30.7195 36.8925 30.5374C36.9597 30.3552 37.064 30.1896 37.1983 30.0513C37.4879 29.7866 37.8678 29.6486 38.2563 29.6668H40.2686V29.3439C40.2686 29.2132 40.1555 29.1325 39.9499 29.1018H36.8079V27.6449H40.2686C40.3139 27.6449 40.4006 27.6525 40.5289 27.6679C41.2342 27.7525 41.6435 28.1298 41.7566 28.8C41.7699 28.8884 41.7768 28.9777 41.7774 29.0672V32.2924C41.78 32.5024 41.7379 32.7105 41.6539 32.9023C41.5698 33.0941 41.446 33.2651 41.2908 33.4033C41.0456 33.6115 40.7348 33.7221 40.4157 33.7147H38.3412C37.4611 33.7147 36.9582 33.3489 36.8324 32.6172C36.8361 32.5261 36.8278 32.435 36.8079 32.3462ZM38.3921 32.0848C38.4508 32.1569 38.5333 32.2048 38.6241 32.2193C38.6497 32.2275 38.6765 32.2314 38.7033 32.2309H39.8839C40.1354 32.2309 40.2611 32.1155 40.2611 31.8849V31.4563C40.2548 31.3553 40.2096 31.2609 40.1355 31.1937C40.0614 31.1264 39.9642 31.0916 39.865 31.0969H38.5449C38.4166 31.1218 38.3393 31.2218 38.3167 31.4005V31.881C38.3181 31.9558 38.3447 32.0277 38.3921 32.0848Z" fill="white"/>
<path d="M44.4931 27.6525H45.9491L46.7714 31.906L47.2938 28.6386C47.4069 27.9293 47.7671 27.5737 48.3707 27.5737C48.5048 27.5686 48.6384 27.5927 48.7626 27.6444C48.8869 27.6961 48.9988 27.7742 49.0911 27.8736C49.2827 28.0821 49.4042 28.3473 49.4381 28.6309L49.9548 31.8772L50.7828 27.6487H52.2406L51.2637 32.6902C51.2104 33.0016 51.0634 33.2885 50.8431 33.511C50.6137 33.7244 50.3126 33.84 50.002 33.8339C49.7059 33.8429 49.4181 33.7331 49.2005 33.5283C48.9826 33.3226 48.8402 33.0473 48.7969 32.7479L48.3273 29.6726L47.9312 32.7479C47.896 33.0454 47.7543 33.3191 47.5333 33.5167C47.3173 33.7214 47.0323 33.8336 46.7374 33.83C46.4295 33.8396 46.1303 33.7257 45.9038 33.5129C45.6757 33.2916 45.5225 33.0022 45.4663 32.6864L44.4931 27.6525Z" fill="white"/>
<path d="M52.8894 29.0748C52.8898 28.9695 52.9011 28.8645 52.9233 28.7616C53.0817 28.0222 53.562 27.6525 54.3642 27.6525H56.4179C57.2503 27.6525 57.7192 28.0549 57.8249 28.8596C57.8339 28.9438 57.8377 29.0286 57.8362 29.1133V30.3203L54.4226 31.6658V31.7657C54.4226 32.0425 54.5207 32.1809 54.7168 32.1809H57.8267V33.7301H54.5037C54.1957 33.7479 53.8881 33.6885 53.6079 33.5571C53.1232 33.2861 52.8818 32.8209 52.8818 32.1578L52.8894 29.0748ZM56.3048 29.5707V29.5131C56.2865 29.4501 56.2499 29.3942 56.1996 29.353C56.1494 29.3118 56.0881 29.2872 56.0238 29.2824C55.9982 29.2743 55.9714 29.2704 55.9446 29.2709H54.9035C54.8149 29.2613 54.7254 29.278 54.6458 29.3189C54.5662 29.3598 54.4998 29.4232 54.4547 29.5015C54.4295 29.5513 54.4178 29.6071 54.4207 29.663V30.2877L56.3048 29.5707Z" fill="white"/>
<path d="M58.9885 32.0982V25.3903H60.4972V27.6583H62.6416C62.8267 27.6526 63.0107 27.689 63.1803 27.7648C63.35 27.8406 63.5009 27.9539 63.6222 28.0965C63.8743 28.3909 64.0089 28.7708 63.9994 29.1613V32.202C64.0069 32.4839 63.9419 32.7629 63.8108 33.0112C63.7024 33.2329 63.534 33.4182 63.3254 33.5452C63.1168 33.6723 62.8769 33.7358 62.634 33.7281H60.4991C60.2878 33.7378 60.0768 33.7021 59.88 33.6233C59.6831 33.5445 59.5046 33.4243 59.3562 33.2707C59.2114 33.1167 59.103 32.931 59.0393 32.7278C58.9755 32.5246 58.9582 32.3093 58.9885 32.0982ZM60.5218 31.9272C60.5381 31.9883 60.5713 32.0435 60.6175 32.086C60.6636 32.1286 60.7207 32.1568 60.782 32.1674C60.8112 32.1772 60.8419 32.1812 60.8725 32.179H62.1097C62.1403 32.1799 62.1708 32.1761 62.2002 32.1674C62.3888 32.1367 62.4944 32.056 62.4944 31.9272V29.638C62.4964 29.6106 62.4925 29.5831 62.4831 29.5573C62.4827 29.5082 62.4725 29.4598 62.453 29.4149C62.4336 29.3701 62.4053 29.3297 62.37 29.2964C62.3346 29.2631 62.293 29.2375 62.2476 29.2212C62.2022 29.2049 62.154 29.1983 62.1059 29.2017H60.9367C60.8355 29.1951 60.7357 29.2283 60.6578 29.2944C60.5799 29.3606 60.5298 29.4547 60.518 29.5573C60.5093 29.5792 60.5054 29.6029 60.5067 29.6265V31.8176C60.5022 31.853 60.5074 31.8889 60.5218 31.9214V31.9272Z" fill="white"/>
<path d="M17.0678 15.855C16.3121 15.5291 15.5765 15.1569 14.865 14.7402L13.8202 16.2471C14.5408 16.7341 15.2855 17.1832 16.0513 17.5925L17.0678 15.855Z" fill="white"/>
<path d="M13.4543 16.7737L12.3982 18.3114C13.1317 18.8865 13.8981 19.4167 14.6934 19.899L15.7269 18.1403C14.947 17.7246 14.1885 17.2685 13.4543 16.7737Z" fill="white"/>
<path d="M16.2813 18.4152L15.2308 20.2007C16.303 20.8144 17.4174 21.3482 18.5652 21.798L19.3403 19.7433C18.2986 19.3554 17.2775 18.912 16.2813 18.4152Z" fill="white"/>
<path d="M19.5629 19.1532L20.3908 16.9602C19.4576 16.7368 18.5407 16.4478 17.6467 16.0952L16.5963 17.8751C17.562 18.3549 18.5523 18.7816 19.5629 19.1532Z" fill="white"/>
<path d="M9.61832 13.4543L8.67535 14.5845C9.02802 15.042 9.39955 15.486 9.7956 15.9165L10.7725 14.6537C10.3331 14.2347 9.94836 13.8388 9.61832 13.4543Z" fill="white"/>
<path d="M11.1742 14.1367L12.1681 12.8489C11.7626 12.5106 11.3684 12.1589 10.9931 11.7899L10.0351 12.9431C10.3613 13.3217 10.7329 13.7196 11.1742 14.1367Z" fill="white"/>
<path d="M50.1057 0C50.1057 0 44.578 4.73017 38.4732 6.85211L42.0169 8.66076C38.3601 14.2347 31.7687 17.8309 24.389 17.5214C23.2481 17.4739 22.1128 17.3325 20.9943 17.0986L20.3946 18.6862C20.7567 18.8399 21.6374 19.1417 23.3159 19.3108L22.8652 21.2867C21.7646 21.2972 20.6758 21.0548 19.6798 20.5775L19.1385 22.0132C21.8217 22.9824 24.6335 23.5313 27.4782 23.6412C37.2851 24.0506 45.8586 19.4127 49.5437 12.4933L53.0496 14.2828C53.0496 14.2828 53.4532 8.47816 50.1057 0Z" fill="white"/>
<path d="M13.6448 15.3899C13.0386 15.0438 12.4546 14.6586 11.8965 14.2366L11.0007 15.3899C11.5363 15.9001 12.1033 16.3752 12.698 16.8122L13.6448 15.3899Z" fill="white"/>
<path d="M9.75598 12.2261C9.41751 11.8445 9.10557 11.4392 8.82243 11.0133L8.05486 11.6688C8.31633 12.1678 8.61652 12.6447 8.95256 13.0949L9.75598 12.2261Z" fill="white"/>
</svg>
